# Blender v2.82 (sub 7) OBJ File: 'diamond.blend'
# www.blender.org
o Gem
v 0.000000 0.200000 0.000000
v 0.000000 1.350000 0.000000
v 0.000000 0.600000 -0.541196
v 0.382683 1.000000 -0.923880
v 0.000000 1.175000 -0.865914
v 0.229610 1.350000 -0.554328
v 0.382683 0.600000 -0.382683
v 0.923880 1.000000 -0.382683
v 0.612293 1.175000 -0.612293
v 0.554328 1.350000 -0.229610
v 0.541196 0.600000 -0.000000
v 0.923880 1.000000 0.382683
v 0.865914 1.175000 -0.000000
v 0.554328 1.350000 0.229610
v 0.382683 0.600000 0.382683
v 0.382683 1.000000 0.923880
v 0.612293 1.175000 0.612293
v 0.229610 1.350000 0.554328
v 0.000000 0.600000 0.541196
v -0.382683 1.000000 0.923880
v 0.000000 1.175000 0.865914
v -0.229610 1.350000 0.554328
v -0.382683 0.600000 0.382683
v -0.923880 1.000000 0.382683
v -0.612293 1.175000 0.612293
v -0.554328 1.350000 0.229610
v -0.541196 0.600000 0.000000
v -0.923880 1.000000 -0.382683
v -0.865914 1.175000 0.000000
v -0.554328 1.350000 -0.229610
v -0.382683 0.600000 -0.382683
v -0.382683 1.000000 -0.923880
v -0.612293 1.175000 -0.612293
v -0.229610 1.350000 -0.554328
vt 0.000000 0.000000
vt 1.000000 0.000000
vt 1.000000 1.000000
vt 1.000000 0.000000
vt 1.000000 1.000000
vt 0.000000 0.000000
vt 1.000000 1.000000
vt 0.000000 0.000000
vt 1.000000 0.000000
vt 0.000000 0.000000
vt 1.000000 1.000000
vt 0.000000 0.000000
vt 1.000000 0.000000
vt 1.000000 0.000000
vt 1.000000 1.000000
vt 0.000000 0.000000
vt 1.000000 1.000000
vt 1.000000 0.000000
vt 0.000000 0.000000
vt 1.000000 1.000000
vt 0.000000 0.000000
vt 1.000000 0.000000
vt 1.000000 0.000000
vt 1.000000 1.000000
vt 0.000000 0.000000
vt 1.000000 1.000000
vt 1.000000 0.000000
vt 0.000000 0.000000
vt 1.000000 1.000000
vt 0.000000 0.000000
vt 1.000000 0.000000
vt 1.000000 0.000000
vt 1.000000 1.000000
vt 0.000000 0.000000
vt 1.000000 1.000000
vt 1.000000 0.000000
vt 0.000000 0.000000
vt 1.000000 1.000000
vt 0.000000 0.000000
vt 1.000000 0.000000
vt 1.000000 0.000000
vt 1.000000 1.000000
vt 0.000000 0.000000
vt 1.000000 1.000000
vt 1.000000 0.000000
vt 0.000000 0.000000
vt 1.000000 1.000000
vt 0.000000 0.000000
vt 1.000000 0.000000
vt 1.000000 0.000000
vt 1.000000 1.000000
vt 0.000000 0.000000
vt 1.000000 1.000000
vt 1.000000 0.000000
vt 0.000000 0.000000
vt 1.000000 1.000000
vt 0.000000 0.000000
vt 1.000000 0.000000
vt 1.000000 0.000000
vt 1.000000 1.000000
vt 0.000000 0.000000
vt 1.000000 1.000000
vt 1.000000 0.000000
vt 0.000000 0.000000
vt 1.000000 1.000000
vt 0.000000 0.000000
vt 1.000000 0.000000
vt 1.000000 0.000000
vt 1.000000 1.000000
vt 1.000000 0.000000
vt 0.000000 0.000000
vt 1.000000 1.000000
vt 0.000000 0.000000
vt 1.000000 1.000000
vt 0.000000 0.000000
vt 1.000000 0.000000
vt 1.000000 1.000000
vt 1.000000 0.000000
vt 1.000000 1.000000
vt 1.000000 0.000000
vt 1.000000 1.000000
vt 1.000000 0.000000
vt 1.000000 1.000000
vt 1.000000 0.000000
vt 1.000000 1.000000
vt 1.000000 0.000000
vt 1.000000 1.000000
vt 1.000000 0.000000
vt 1.000000 1.000000
vt 1.000000 0.000000
vt 1.000000 1.000000
vt 1.000000 0.000000
vn 0.2391 -0.7809 -0.5771
vn 0.5109 -0.6913 -0.5109
vn 0.6712 0.3144 -0.6712
vn 0.2520 0.7526 -0.6084
vn 0.3463 0.8719 -0.3463
vn 0.5771 -0.7809 -0.2391
vn 0.7226 -0.6913 0.0000
vn 0.9493 0.3144 0.0000
vn 0.6084 0.7526 -0.2520
vn 0.4897 0.8719 0.0000
vn 0.5771 -0.7809 0.2391
vn 0.5109 -0.6913 0.5109
vn 0.6712 0.3144 0.6712
vn 0.6084 0.7526 0.2520
vn 0.3463 0.8719 0.3463
vn 0.2391 -0.7809 0.5771
vn 0.0000 -0.6913 0.7226
vn 0.0000 0.3144 0.9493
vn 0.2520 0.7526 0.6084
vn 0.0000 0.8719 0.4897
vn -0.2391 -0.7809 0.5771
vn -0.5109 -0.6913 0.5109
vn -0.6712 0.3144 0.6712
vn -0.2520 0.7526 0.6084
vn -0.3463 0.8719 0.3463
vn -0.5771 -0.7809 0.2391
vn -0.7226 -0.6913 0.0000
vn -0.9493 0.3144 0.0000
vn -0.6084 0.7526 0.2520
vn -0.4897 0.8719 0.0000
vn -0.5771 -0.7809 -0.2391
vn -0.5109 -0.6913 -0.5109
vn -0.6712 0.3144 -0.6712
vn -0.6084 0.7526 -0.2520
vn -0.3463 0.8719 -0.3463
vn -0.2391 -0.7809 -0.5771
vn 0.0000 -0.6913 -0.7226
vn 0.0000 0.3144 -0.9493
vn -0.2520 0.7526 -0.6084
vn 0.0000 0.8719 -0.4897
vn 0.0000 1.0000 0.0000
s off
f 7/1/1 3/2/1 4/3/1
f 7/1/2 4/4/2 8/5/2
f 8/6/3 4/4/3 9/7/3
f 4/8/4 6/9/4 9/7/4
f 9/10/5 6/9/5 10/11/5
f 11/12/6 7/13/6 8/5/6
f 11/12/7 8/14/7 12/15/7
f 12/16/8 8/14/8 13/17/8
f 8/6/9 10/18/9 13/17/9
f 13/19/10 10/18/10 14/20/10
f 15/21/11 11/22/11 12/15/11
f 15/21/12 12/23/12 16/24/12
f 16/25/13 12/23/13 17/26/13
f 12/16/14 14/27/14 17/26/14
f 17/28/15 14/27/15 18/29/15
f 19/30/16 15/31/16 16/24/16
f 19/30/17 16/32/17 20/33/17
f 20/34/18 16/32/18 21/35/18
f 16/25/19 18/36/19 21/35/19
f 21/37/20 18/36/20 22/38/20
f 23/39/21 19/40/21 20/33/21
f 23/39/22 20/41/22 24/42/22
f 24/43/23 20/41/23 25/44/23
f 20/34/24 22/45/24 25/44/24
f 25/46/25 22/45/25 26/47/25
f 27/48/26 23/49/26 24/42/26
f 27/48/27 24/50/27 28/51/27
f 28/52/28 24/50/28 29/53/28
f 24/43/29 26/54/29 29/53/29
f 29/55/30 26/54/30 30/56/30
f 31/57/31 27/58/31 28/51/31
f 31/57/32 28/59/32 32/60/32
f 32/61/33 28/59/33 33/62/33
f 28/52/34 30/63/34 33/62/34
f 33/64/35 30/63/35 34/65/35
f 3/66/36 31/67/36 32/60/36
f 3/66/37 32/68/37 4/3/37
f 4/8/38 32/68/38 5/69/38
f 32/61/39 34/70/39 5/69/39
f 5/71/40 34/70/40 6/72/40
f 6/73/41 34/70/41 2/74/41
f 2/75/41 10/18/41 6/72/41
f 2/75/41 14/27/41 10/11/41
f 2/75/41 18/36/41 14/20/41
f 2/75/41 22/45/41 18/29/41
f 2/75/41 26/54/41 22/38/41
f 2/75/41 30/63/41 26/47/41
f 2/75/41 34/70/41 30/56/41
f 7/1/1 1/76/1 3/77/1
f 4/8/4 5/78/4 6/72/4
f 11/12/6 1/76/6 7/79/6
f 8/6/9 9/80/9 10/11/9
f 15/21/11 1/76/11 11/81/11
f 12/16/14 13/82/14 14/20/14
f 19/30/16 1/76/16 15/83/16
f 16/25/19 17/84/19 18/29/19
f 23/39/21 1/76/21 19/85/21
f 20/34/24 21/86/24 22/38/24
f 27/48/26 1/76/26 23/87/26
f 24/43/29 25/88/29 26/47/29
f 31/57/31 1/76/31 27/89/31
f 28/52/34 29/90/34 30/56/34
f 3/66/36 1/76/36 31/91/36
f 32/61/39 33/92/39 34/65/39
